<svg
   viewBox="0 0 45 44"
   height="44"
   width="45"
   xml:space="preserve"
   id="svg2"
   version="1.1"><<defs
     id="defs6"><clipPath
       id="clipPath20"
       clipPathUnits="userSpaceOnUse"><path
       class="gitFill"
         id="path18"
         d="M 0,551.986 H 530.973 V 0 H 0 Z" /></clipPath></defs><g
         class="gitFill"
     transform="matrix(1.3333333,0,0,-1.3333333,0,44.000007)"
     id="g10"><path
     class="gitFill"
       d="M 16.87347,31.774872 C 7.55514,31.774872 0,24.481872 0,15.484872 c 0,-7.197 4.83476,-13.302 11.54043,-15.45699994 0.84429,-0.149 1.15197,0.354 1.15197,0.78599995 0,0.38599999 -0.0145,1.41099999 -0.0228,2.76999999 -4.69387,-0.984 -5.68423,2.184 -5.68423,2.184 -0.76764,1.881 -1.87403,2.382 -1.87403,2.382 -1.53216,1.011 0.11603,0.991 0.11603,0.991 1.69376,-0.116 2.58468,-1.679 2.58468,-1.679 1.50522,-2.489 3.95006,-1.77 4.91141,-1.354 0.15333,1.053 0.58842,1.771 1.07118,2.178 -3.74702,0.411 -7.68672,1.809 -7.68672,8.051 0,1.778 0.65783,3.232 1.73728,4.371 -0.17404,0.412 -0.75313,2.068 0.16472,4.311 0,0 1.41716,0.438 4.64103,-1.67 1.3457,0.361 2.7898,0.542 4.22459,0.548 1.43271,-0.006 2.87681,-0.187 4.22457,-0.548 3.22179,2.108 4.63586,1.67 4.63586,1.67 0.92096,-2.243 0.34187,-3.899 0.16783,-4.311 1.08152,-1.139 1.7352,-2.593 1.7352,-4.371 0,-6.258 -3.94591,-7.635 -7.70536,-8.038 0.60603,-0.503 1.14576,-1.497 1.14576,-3.017 0,-2.177 -0.0208,-3.934 -0.0208,-4.46799999 0,-0.43599995 0.30353,-0.94299995 1.16026,-0.78399995 6.70049,2.15899994 11.5311,8.25999994 11.5311,15.45499994 0,8.997 -7.55619,16.29 -16.87658,16.29"
       style="fill-opacity:1;fill-rule:evenodd;stroke:none;stroke-width:1.01781392"
       id="path24" /></g></svg>