<svg height="115" width="100"> <defs id="defs18"/> <title id="title2">HTML5 Logo</title> <g transform="matrix(0.27563396,0,0,0.2795333,-20.562293,-28.12105)" id="g831"> <path style="fill:#e44d26" d="M 107.6,471 74.6,100.6 H 437.4 L 404.4,470.8 255.7,512" id="path6"/> <path style="fill:#f16529" d="M 256,480.5 V 131 H 404.3 L 376,447" id="path8"/> <path style="fill:#ebebeb" d="m 142,176.3 h 114 v 45.4 h -64.2 l 4.2,46.5 h 60 v 45.3 H 154.4 m 2,22.8 H 202 l 3.2,36.3 50.8,13.6 v 47.4 l -93.2,-26" id="path10"/> <path style="fill:#ffffff" d="M 369.6,176.3 H 255.8 v 45.4 h 109.6 m -4.1,46.5 H 255.8 v 45.4 h 56 l -5.3,59 -50.7,13.6 v 47.2 l 93,-25.8" id="path12"/> </g></svg>