<svg
   width="76"
   height="76.5"
   id="svg3070"
   sodipodi:docname="LinkedIn_Logo.svg">
  <defs
     id="defs3072" />
  <g
     inkscape:label="Layer 1"
     inkscape:groupmode="layer"
     id="layer1"
     transform="translate(-200.55198,-396.92227)">
    <g
       transform="matrix(1.018827,0,0,-1.018827,170.5996,498.03288)"
       id="g3019">
      <path
         d="m 29.398887,93.633828 c 0,2.96 2.46039,5.361 5.495577,5.361 h 63.375737 c 3.035089,0 5.495579,-2.401 5.495579,-5.361 v -64.117 c 0,-2.961 -2.46049,-5.361 -5.495579,-5.361 H 34.894464 c -3.035187,0 -5.495577,2.4 -5.495577,5.361 z"
         style="fill:#006699;fill-opacity:1;fill-rule:nonzero;stroke:none;stroke-width:0.99999791"
         id="path14"
         inkscape:connector-curvature="0" />
      <path
         d="m 51.941793,36.346828 v 33.794 H 40.70934 v -33.794 z m -5.616276,38.408 c 3.916984,0 6.354973,2.595 6.354973,5.838 -0.073,3.316 -2.437989,5.839 -6.280674,5.839 -3.842284,0 -6.354473,-2.523 -6.354473,-5.839 0,-3.243 2.43749,-5.838 6.206974,-5.838 h 0.073 z"
         style="fill:#ffffff;fill-opacity:1;fill-rule:evenodd;stroke:none;stroke-width:0.99999791"
         id="path28"
         inkscape:connector-curvature="0" />
      <path
         d="m 58.157068,36.346828 h 11.232353 v 18.872 c 0,1.01 0.073,2.019 0.369599,2.741 0.811996,2.018 2.660189,4.108 5.763176,4.108 4.064483,0 5.690376,-3.099 5.690376,-7.642 v -18.079 h 11.231453 v 19.377 c 0,10.38 -5.541477,15.21 -12.931546,15.21 -6.059575,0 -8.719764,-3.387 -10.197758,-5.694 h 0.075 v 4.901 H 58.157368 c 0.147399,-3.171 0,-33.794 0,-33.794 z"
         style="fill:#ffffff;fill-opacity:1;fill-rule:evenodd;stroke:none;stroke-width:0.99999791"
         id="path30"
         inkscape:connector-curvature="0" />
    </g>
  </g>
</svg>
