<svg height="115" width="100" ><defs id="defs6"><clipPath id="clipPath18" clipPathUnits="userSpaceOnUse"><path id="path20" d="m 275.945,28.6719 -29.961,9.9179 c 0,0 3.821,151.6402 -50.867,162.2582 -36.062,41.785 5.551,1784.892 136.559,5.972 0,0 -44.84,-22.515 -53.328,-60.75 -8.485,-38.261 -2.403,-117.3981 -2.403,-117.3981 z" inkscape:connector-curvature="0"/></clipPath><linearGradient id="linearGradient22" spreadMethod="pad" gradientTransform="matrix(344.394,-116.194,-104.815,-309.067,77.7619,575.995)" gradientUnits="userSpaceOnUse" y2="0" x2="1" y1="0" x1="0"><stop id="stop24" offset="0" style="stop-opacity:1;stop-color:#929669"/><stop id="stop26" offset="0.230769" style="stop-opacity:1;stop-color:#929669"/><stop id="stop28" offset="1" style="stop-opacity:1;stop-color:#fdfcf1"/></linearGradient><clipPath id="clipPath36" clipPathUnits="userSpaceOnUse"><path id="path38" d="m 292.098,175.105 c 0,0 260.343,171.469 199.351,527.575 -58.738,258.718 -197.418,343.77 -212.32,376.24 -16.406,22.98 -32.93,63.71 -32.93,63.71 l 11.074,-720.864 c 0,0 -22.906,-220.11 34.825,-246.661 z" inkscape:connector-curvature="0"/></clipPath><linearGradient id="linearGradient40" spreadMethod="pad" gradientTransform="matrix(241.166,-936.211,-1007.33,-161.502,203.932,1135.85)" gradientUnits="userSpaceOnUse" y2="0" x2="1" y1="0" x1="0"><stop id="stop42" offset="0" style="stop-opacity:1;stop-color:#45aa3a"/><stop id="stop44" offset="1" style="stop-opacity:1;stop-color:#3d9439"/></linearGradient><clipPath id="clipPath52" clipPathUnits="userSpaceOnUse"><path id="path54" d="m 230.742,165.523 c 0,0 -244.2108,166.598 -230.159969,460.543 C 14.6367,920.02 187.121,1064.55 220.715,1090.77 c 21.719,23.15 22.617,32.07 24.297,54.91 15.222,-32.7 12.691,-488.422 14.304,-541.688 6.258,-207.351 -11.484,-399.328 -28.574,-438.469 z" inkscape:connector-curvature="0"/></clipPath><linearGradient id="linearGradient56" spreadMethod="pad" gradientTransform="matrix(422.095,95.9042,131.897,-394.11,-25.0834,595.855)" gradientUnits="userSpaceOnUse" y2="0" x2="1" y1="0" x1="0"><stop id="stop58" offset="0" style="stop-opacity:1;stop-color:#41a83b"/><stop id="stop60" offset="1" style="stop-opacity:1;stop-color:#5ebc44"/></linearGradient></defs><g id="g891" transform="matrix(1.0285425,0,0,-1.029536,25.750189,117.95187)"><g transform="scale(0.1)" id="g14"><g id="g16" clip-path="url(#clipPath18)"><path inkscape:connector-curvature="0" d="m 275.945,28.6719 -29.961,9.9179 c 0,0 3.821,151.6402 -50.867,162.2582 -36.062,41.785 5.551,1784.892 136.559,5.972 0,0 -44.84,-22.515 -53.328,-60.75 -8.485,-38.261 -2.403,-117.3981 -2.403,-117.3981" style="fill:url(#linearGradient22);fill-opacity:1;fill-rule:nonzero;stroke:none" id="path30"/></g></g><g transform="scale(0.1)" id="g32"><g id="g34" clip-path="url(#clipPath36)"><path inkscape:connector-curvature="0" d="m 292.098,175.105 c 0,0 260.343,171.469 199.351,527.575 -58.738,258.718 -197.418,343.77 -212.32,376.24 -16.406,22.98 -32.93,63.71 -32.93,63.71 l 11.074,-720.864 c 0,0 -22.906,-220.11 34.825,-246.661" style="fill:url(#linearGradient40);fill-opacity:1;fill-rule:nonzero;stroke:none" id="path46"/></g></g><g transform="scale(0.1)" id="g48"><g id="g50" clip-path="url(#clipPath52)"><path inkscape:connector-curvature="0" d="m 230.742,165.523 c 0,0 -244.2108,166.598 -230.159969,460.543 C 14.6367,920.02 187.121,1064.55 220.715,1090.77 c 21.719,23.15 22.617,32.07 24.297,54.91 15.222,-32.7 12.691,-488.422 14.304,-541.688 6.258,-207.351 -11.484,-399.328 -28.574,-438.469" style="fill:url(#linearGradient56);fill-opacity:1;fill-rule:nonzero;stroke:none" id="path62"/></g></g></g></svg>