<svg
   x="0px"
   y="0px"
   viewBox="0 0 550 550.00001"
   width="550"
   height="550">
   <defs
   id="defs20"><filter
     id="filter282"
     style="color-interpolation-filters:sRGB"><feBlend
       in2="BackgroundImage"
       mode="darken"
       id="feBlend4" /></filter><filter
     id="filter91"
     style="color-interpolation-filters:sRGB"><feBlend
       in2="BackgroundImage"
       mode="darken"
       id="feBlend89" /></filter><filter
     id="filter95"
     style="color-interpolation-filters:sRGB"><feBlend
       in2="BackgroundImage"
       mode="darken"
       id="feBlend93" /></filter><filter
     id="filter99"
     style="color-interpolation-filters:sRGB"><feBlend
       in2="BackgroundImage"
       mode="darken"
       id="feBlend97" /></filter><filter
     id="filter103"
     style="color-interpolation-filters:sRGB"><feBlend
       in2="BackgroundImage"
       mode="darken"
       id="feBlend101" /></filter><filter
     id="filter107"
     style="color-interpolation-filters:sRGB"><feBlend
       in2="BackgroundImage"
       mode="darken"
       id="feBlend105" /></filter><filter
     id="filter111"
     style="color-interpolation-filters:sRGB"><feBlend
       in2="BackgroundImage"
       mode="darken"
       id="feBlend109" /></filter></defs><sodipodi:namedview
   pagecolor="#ffffff"
   bordercolor="#666666"
   borderopacity="1"
   objecttolerance="10"
   gridtolerance="10"
   guidetolerance="10"
   inkscape:pageopacity="0"
   inkscape:pageshadow="2"
   inkscape:window-width="1920"
   inkscape:window-height="1017"
   id="namedview18"
   showgrid="false"
   inkscape:zoom="1.5418182"
   inkscape:cx="367.21981"
   inkscape:cy="275"
   inkscape:window-x="1912"
   inkscape:window-y="-8"
   inkscape:window-maximized="1"
   inkscape:current-layer="layer1" />

<g
   inkscape:groupmode="layer"
   id="layer2"
   inkscape:label="Background"
   style="opacity:1"><rect
     style="opacity:0.2;stroke-width:9.7348938"
     width="540.35083"
     height="550"
     x="-550"
     y="-550"
     rx="27.017542"
     ry="27.499998"
     transform="matrix(0,-1,-1,0,0,0)"
     id="rect2" /><rect
     style="fill:#b4b4b4;stroke-width:9.7348938;fill-opacity:1"
     width="530.70172"
     height="550"
     x="-540.35089"
     y="-550"
     rx="27.017542"
     ry="27.499998"
     transform="matrix(0,-1,-1,0,0,0)"
     id="rect4" /><path
     inkscape:connector-curvature="0"
     style="opacity:0.2;stroke-width:9.7348938"
     d="m 2.7693162e-5,135.0877 v 9.64912 H 550 v -9.64912 z"
     id="path6-6" /><path
     inkscape:connector-curvature="0"
     style="fill:#454ade;fill-opacity:1;stroke-width:9.7348938"
     d="M 27.507879,0 C 12.272889,0 2.7693162e-5,12.061399 2.7693162e-5,27.017534 V 135.0877 H 550 V 27.017534 C 550,12.061399 537.72321,0 522.5,0 Z"
     id="path8-6" /><path
     inkscape:connector-curvature="0"
     style="opacity:0.2;fill:#ffffff;stroke-width:9.7348938"
     d="M 27.507879,0 C 12.272889,0 2.7693162e-5,12.069119 2.7693162e-5,27.025254 v 9.649119 C 2.7693162e-5,21.718238 12.272889,9.6491189 27.507879,9.6491189 H 522.49018 C 537.71339,9.6491189 550,21.718238 550,36.674373 V 27.025254 C 550,12.069119 537.71339,0 522.49018,0 Z"
     id="path12-9" /></g><g
   inkscape:groupmode="layer"
   id="layer4"
   inkscape:label="Icon"><g
     transform="matrix(14.17551,0,0,14.171829,49.967499,-3651.1748)"
     id="g73"
     style="fill:#fafafa;fill-opacity:1"><g
       transform="matrix(0.45652,0,0,0.45246,2.636,267.71)"
       style="enable-background:new;fill:#fafafa;fill-opacity:1"
       id="g71"><g
         transform="translate(0,-12.5)"
         id="g69"
         style="fill:#fafafa;fill-opacity:1"><g
           transform="translate(0,14)"
           id="g67"
           style="fill:#fafafa;fill-opacity:1"><path
             inkscape:connector-curvature="0"
             class="fill"
             d="m 26,2.5 c 1.654,0 3,1.346 3,3 0,1.654 -1.346,3 -3,3 -0.553,0 -1,0.447 -1,1 0,0.553 0.447,1 1,1 2.757,0 5,-2.243 5,-5 0,-2.757 -2.243,-5 -5,-5 -0.553,0 -1,0.447 -1,1 0,0.553 0.447,1 1,1 z"
             style="enable-background:new;fill:#fafafa;fill-opacity:1"
             id="path11" /><path
             inkscape:connector-curvature="0"
             class="fill"
             d="m 32,2.5 c 1.654,0 3,1.346 3,3 0,1.654 -1.346,3 -3,3 -0.553,0 -1,0.447 -1,1 0,0.553 0.447,1 1,1 2.757,0 5,-2.243 5,-5 0,-2.757 -2.243,-5 -5,-5 -0.553,0 -1,0.447 -1,1 0,0.553 0.447,1 1,1 z"
             style="enable-background:new;fill:#fafafa;fill-opacity:1"
             id="path13" /><path
             inkscape:connector-curvature="0"
             class="fill"
             d="m 44,2.5 c 1.654,0 3,1.346 3,3 0,1.654 -1.346,3 -3,3 -0.553,0 -1,0.447 -1,1 0,0.553 0.447,1 1,1 2.757,0 5,-2.243 5,-5 0,-2.757 -2.243,-5 -5,-5 -0.553,0 -1,0.447 -1,1 0,0.553 0.447,1 1,1 z"
             style="enable-background:new;fill:#fafafa;fill-opacity:1"
             id="path15" /><path
             inkscape:connector-curvature="0"
             class="fill"
             d="m 38,2.5 c 1.654,0 3,1.346 3,3 0,1.654 -1.346,3 -3,3 -0.553,0 -1,0.447 -1,1 0,0.553 0.447,1 1,1 2.757,0 5,-2.243 5,-5 0,-2.757 -2.243,-5 -5,-5 -0.553,0 -1,0.447 -1,1 0,0.553 0.447,1 1,1 z"
             style="enable-background:new;fill:#fafafa;fill-opacity:1"
             id="path17" /><path
             inkscape:connector-curvature="0"
             class="fill"
             d="m 20,2.5 c 1.654,0 3,1.346 3,3 0,1.654 -1.346,3 -3,3 -0.553,0 -1,0.447 -1,1 0,0.553 0.447,1 1,1 2.757,0 5,-2.243 5,-5 0,-2.757 -2.243,-5 -5,-5 -0.553,0 -1,0.447 -1,1 0,0.553 0.447,1 1,1 z"
             style="enable-background:new;fill:#fafafa;fill-opacity:1"
             id="path19" /><path
             inkscape:connector-curvature="0"
             class="fill"
             d="m 14,2.5 c 1.654,0 3,1.346 3,3 0,1.654 -1.346,3 -3,3 -0.553,0 -1,0.447 -1,1 0,0.553 0.447,1 1,1 2.757,0 5,-2.243 5,-5 0,-2.757 -2.243,-5 -5,-5 -0.553,0 -1,0.447 -1,1 0,0.553 0.447,1 1,1 z"
             style="enable-background:new;fill:#fafafa;fill-opacity:1"
             id="path21" /><path
             inkscape:connector-curvature="0"
             class="fill"
             d="M 54.899,4.5 C 54.434,2.221 52.415,0.5 50,0.5 c -0.553,0 -1,0.447 -1,1 0,0.553 0.447,1 1,1 1.654,0 3,1.346 3,3 0,1.654 -1.346,3 -3,3 -0.553,0 -1,0.447 -1,1 0,0.553 0.447,1 1,1 2.414,0 4.434,-1.721 4.899,-4 H 56 v 9 H 2 v -9 h 5 c 0.553,0 1,-0.447 1,-1 0,-0.553 -0.447,-1 -1,-1 H 5.184 C 5.598,3.338 6.698,2.5 8,2.5 c 1.654,0 3,1.346 3,3 0,1.654 -1.346,3 -3,3 -0.553,0 -1,0.447 -1,1 0,0.553 0.447,1 1,1 2.757,0 5,-2.243 5,-5 0,-2.757 -2.243,-5 -5,-5 -2.414,0 -4.434,1.721 -4.899,4 H 0 v 53 H 58 V 4.5 Z M 56,55.5 H 2 v -38 h 54 z"
             style="filter:url(#filter282);enable-background:new;fill:#fafafa;fill-opacity:1"
             id="path23" /><g
             transform="matrix(0.10309,0,0,0.10309,2948.5,21.015)"
             style="clip-rule:evenodd;fill-rule:evenodd;filter:url(#filter282);image-rendering:optimizeQuality;shape-rendering:geometricPrecision;enable-background:new;fill:#fafafa;fill-opacity:1"
             id="g29"><g
               transform="translate(-28536,-0.43962)"
               id="g27"
               style="fill:#fafafa;fill-opacity:1"><path
                 inkscape:connector-curvature="0"
                 class="fill"
                 d="m 0,43 c 2,-4 6,-9 13,-7 6,2 10,8 13,16 C 50,25 70,6 94,0 97,0 98,0 96,2 70,20 45,47 25,82 24,83 23,83 22,82 18,72 15,62 10,52 8,47 5,43 0,43 Z"
                 id="path25"
                 style="fill:#fafafa;fill-opacity:1" /></g></g><g
             transform="matrix(0.10309,0,0,0.10309,2948.5,31.057)"
             style="clip-rule:evenodd;fill-rule:evenodd;filter:url(#filter282);image-rendering:optimizeQuality;shape-rendering:geometricPrecision;enable-background:new;fill:#fafafa;fill-opacity:1"
             id="g35"><g
               transform="translate(-28536,-0.43962)"
               id="g33"
               style="fill:#fafafa;fill-opacity:1"><path
                 inkscape:connector-curvature="0"
                 class="fill"
                 d="m 0,43 c 2,-4 6,-9 13,-7 6,2 10,8 13,16 C 50,25 70,6 94,0 97,0 98,0 96,2 70,20 45,47 25,82 24,83 23,83 22,82 18,72 15,62 10,52 8,47 5,43 0,43 Z"
                 id="path31"
                 style="fill:#fafafa;fill-opacity:1" /></g></g><g
             transform="matrix(0.10309,0,0,0.10309,2948.5,41.057)"
             style="clip-rule:evenodd;fill-rule:evenodd;filter:url(#filter282);image-rendering:optimizeQuality;shape-rendering:geometricPrecision;enable-background:new;fill:#fafafa;fill-opacity:1"
             id="g41"><g
               transform="translate(-28536,-0.43962)"
               id="g39"
               style="fill:#fafafa;fill-opacity:1"><path
                 inkscape:connector-curvature="0"
                 class="fill"
                 d="m 0,43 c 2,-4 6,-9 13,-7 6,2 10,8 13,16 C 50,25 70,6 94,0 97,0 98,0 96,2 70,20 45,47 25,82 24,83 23,83 22,82 18,72 15,62 10,52 8,47 5,43 0,43 Z"
                 id="path37"
                 style="fill:#fafafa;fill-opacity:1" /></g></g><g
             style="filter:url(#filter282);enable-background:new;fill:#fafafa;fill-opacity:1"
             id="g49"><path
               inkscape:connector-curvature="0"
               class="fill"
               transform="rotate(90)"
               d="m 27,-21 a 1,1 0 0 1 -0.5,0.86602 1,1 0 0 1 -1,0 A 1,1 0 0 1 25,-21 h 1 z"
               style="stroke-width:1.02810001;fill:#fafafa;fill-opacity:1"
               id="path43" /><rect
               class="fill"
               x="20.947001"
               y="25"
               width="25.722"
               height="2"
               style="stroke-width:3.27130008;fill:#fafafa;fill-opacity:1"
               id="rect45" /><path
               inkscape:connector-curvature="0"
               class="fill"
               transform="rotate(-90)"
               d="m -25,46.602 a 1,1 0 0 1 -0.5,0.86602 1,1 0 0 1 -1,0 A 1,1 0 0 1 -27,46.602 h 1 z"
               style="stroke-width:1.02810001;fill:#fafafa;fill-opacity:1"
               id="path47" /></g><g
             transform="translate(0,10)"
             style="filter:url(#filter282);enable-background:new;fill:#fafafa;fill-opacity:1"
             id="g57"><path
               inkscape:connector-curvature="0"
               class="fill"
               transform="rotate(90)"
               d="m 27,-21 a 1,1 0 0 1 -0.5,0.86602 1,1 0 0 1 -1,0 A 1,1 0 0 1 25,-21 h 1 z"
               style="stroke-width:1.02810001;fill:#fafafa;fill-opacity:1"
               id="path51" /><rect
               class="fill"
               x="20.947001"
               y="25"
               width="25.722"
               height="2"
               style="stroke-width:3.27130008;fill:#fafafa;fill-opacity:1"
               id="rect53" /><path
               inkscape:connector-curvature="0"
               class="fill"
               transform="rotate(-90)"
               d="m -25,46.602 a 1,1 0 0 1 -0.5,0.86602 1,1 0 0 1 -1,0 A 1,1 0 0 1 -27,46.602 h 1 z"
               style="stroke-width:1.02810001;fill:#fafafa;fill-opacity:1"
               id="path55" /></g><g
             class="fill"
             transform="translate(0,20)"
             style="filter:url(#filter282);enable-background:new;fill:#fafafa;fill-opacity:1"
             id="g65"><path
               inkscape:connector-curvature="0"
               class="fill"
               transform="rotate(90)"
               d="m 27,-21 a 1,1 0 0 1 -0.5,0.86602 1,1 0 0 1 -1,0 A 1,1 0 0 1 25,-21 h 1 z"
               style="stroke-width:1.02810001;fill:#fafafa;fill-opacity:1"
               id="path59" /><rect
               class="fill"
               x="20.947001"
               y="25"
               width="25.722"
               height="2"
               style="stroke-width:3.27130008;fill:#fafafa;fill-opacity:1"
               id="rect61" /><path
               inkscape:connector-curvature="0"
               class="fill"
               transform="rotate(-90)"
               d="m -25,46.602 a 1,1 0 0 1 -0.5,0.86602 1,1 0 0 1 -1,0 A 1,1 0 0 1 -27,46.602 h 1 z"
               style="stroke-width:1.02810001;fill:#fafafa;fill-opacity:1"
               id="path63" /></g></g></g></g></g></g><g
   inkscape:groupmode="layer"
   id="layer1"
   inkscape:label="Title"><g
     transform="translate(172.3,-383.55707)"
     id="g12"
     style="fill:#fafafa;fill-opacity:1"><path
       id="path2"
       d="m -91.6,414 c 4.1,0 8.1,0.6 12.1,1.7 3.9,1.2 7.4,2.9 10.3,5.2 3,-2 6.4,-3.6 10.1,-5 3.8,-1.3 8.3,-1.9 13.6,-1.9 3.8,0 7.5,0.5 11.2,1.5 3.6,1 6.9,2.6 9.8,4.7 2.9,2.2 5.1,5 6.8,8.5 1.7,3.6 2.6,7.9 2.6,13 V 489 c -1,0.3 -2.6,0.6 -4.7,0.9 -2.2,0.3 -4.4,0.5 -6.7,0.5 -2.2,0 -4.2,-0.2 -5.9,-0.5 -1.8,-0.3 -3.2,-0.9 -4.4,-1.8 -1.2,-0.9 -2.1,-2.1 -2.8,-3.7 -0.7,-1.5 -1,-3.6 -1,-6.1 v -35.9 c 0,-3 -0.9,-5.2 -2.6,-6.5 -1.7,-1.4 -4,-2 -6.9,-2 -1.4,0 -2.9,0.3 -4.5,1 -1.6,0.7 -2.8,1.3 -3.6,2 0.1,0.4 0.2,0.8 0.2,1.1 0,0.4 0,0.7 0,1 v 50 c -1.1,0.3 -2.7,0.6 -4.9,0.9 -2.2,0.3 -4.3,0.5 -6.5,0.5 -2.2,0 -4.2,-0.2 -5.9,-0.5 -1.8,-0.3 -3.2,-0.9 -4.4,-1.8 -1.2,-0.9 -2.1,-2.1 -2.8,-3.7 -0.7,-1.5 -1,-3.6 -1,-6.1 v -35.9 c 0,-3 -0.9,-5.2 -2.8,-6.5 -1.9,-1.4 -4.1,-2 -6.7,-2 -1.8,0 -3.4,0.3 -4.6,0.8 -1.3,0.6 -2.4,1.1 -3.3,1.6 V 489 c -1,0.3 -2.6,0.6 -4.7,0.9 -2.2,0.3 -4.4,0.5 -6.7,0.5 -2.2,0 -4.2,-0.2 -5.9,-0.5 -1.8,-0.3 -3.2,-0.9 -4.4,-1.8 -1.2,-0.9 -2.1,-2.1 -2.8,-3.7 -0.7,-1.5 -1,-3.6 -1,-6.1 V 433 c 0,-2.7 0.6,-4.8 1.7,-6.4 1.1,-1.6 2.7,-3.1 4.7,-4.5 3.4,-2.4 7.6,-4.4 12.7,-5.9 5,-1.5 10.2,-2.2 15.7,-2.2 z"
       class="fill"
       inkscape:connector-curvature="0"
       style="fill:#fafafa;fill-opacity:1" /><path
       id="path4"
       d="M 9.5,470.5 C 8.4,468 7.2,465.2 6,462.1 4.7,459 3.5,455.5 2.1,451.5 c -1.4,-4 -2.8,-8.6 -4.2,-13.7 -1.5,-5.1 -3,-11.1 -4.6,-17.8 1.4,-1.4 3.3,-2.6 5.6,-3.7 2.3,-1 4.9,-1.6 7.7,-1.6 3.5,0 6.4,0.7 8.7,2.2 2.3,1.5 4,4.2 5.1,8.2 l 11.9,41.3 h 0.6 c 1.2,-3.4 2.4,-7.1 3.5,-11.1 1.1,-4 2.3,-8.1 3.4,-12.4 1.1,-4.2 2.1,-8.5 3.1,-12.8 0.9,-4.2 1.8,-8.4 2.5,-12.5 3.6,-1.9 7.5,-2.9 11.9,-2.9 3.5,0 6.4,0.8 8.7,2.3 2.3,1.5 3.4,4.1 3.4,7.8 0,2.7 -0.4,5.8 -1,9.4 -0.7,3.6 -1.6,7.3 -2.8,11.3 -1.2,4 -2.5,8.1 -4.1,12.4 -1.6,4.3 -3.2,8.4 -4.9,12.5 -1.7,4.1 -3.4,8 -5.3,11.6 -1.8,3.7 -3.6,6.9 -5.3,9.8 -2.8,4.9 -5.4,8.9 -7.8,12 -2.4,3.1 -4.7,5.5 -6.9,7.3 -2.2,1.7 -4.4,2.9 -6.6,3.6 -2.2,0.6 -4.5,1 -6.9,1 -4.2,0 -7.6,-1.3 -10.2,-3.8 -2.6,-2.5 -4.2,-5.8 -4.6,-9.8 3.2,-2.5 6.4,-5.3 9.6,-8.3 3.2,-3.1 6.1,-6.2 8.7,-9.4 -1.7,-0.5 -3.5,-1.7 -5.5,-3.5 -1.8,-1.8 -4,-5.3 -6.3,-10.4 z"
       class="fill"
       inkscape:connector-curvature="0"
       style="fill:#fafafa;fill-opacity:1" /><path
       id="path6"
       d="m 117.2,491.5 c -1.7,0 -3.7,-0.1 -5.9,-0.2 -2.2,-0.1 -4.5,-0.3 -6.8,-0.6 -2.4,-0.3 -4.7,-0.7 -7,-1.1 -2.4,-0.5 -4.5,-1.1 -6.5,-1.9 -5.5,-2.1 -8.3,-5.8 -8.3,-11 v -70.1 c 0,-2.1 0.6,-3.7 1.7,-4.9 1.1,-1.1 2.7,-2.1 4.7,-2.8 4.3,-1.4 8.8,-2.3 13.6,-2.8 4.8,-0.5 9.1,-0.7 12.9,-0.7 7.8,0 14.9,1 21.2,2.9 6.3,1.9 11.8,4.8 16.3,8.8 4.5,4 8.1,8.9 10.6,14.9 2.5,6 3.8,13.1 3.8,21.3 0,8 -1.2,15 -3.6,20.9 -2.4,6 -5.8,11 -10.3,15 -4.5,4 -9.8,7.1 -16,9.1 -6,2.2 -12.9,3.2 -20.4,3.2 z m -8.4,-21.9 c 1.1,0.2 2.4,0.4 4,0.5 1.6,0.1 3.1,0.2 4.5,0.2 3.4,0 6.5,-0.5 9.4,-1.5 2.8,-1 5.3,-2.5 7.3,-4.6 2,-2.1 3.6,-4.8 4.8,-8.2 1.1,-3.3 1.7,-7.4 1.7,-12.1 0,-9 -2.1,-15.8 -6.3,-20.3 -4.2,-4.5 -9.8,-6.8 -16.8,-6.8 -1.4,0 -2.8,0.1 -4.3,0.1 -1.5,0.1 -2.9,0.3 -4.4,0.4 v 52.3 z"
       class="fill"
       inkscape:connector-curvature="0"
       style="fill:#fafafa;fill-opacity:1" /><path
       id="path8"
       d="m 210.7,414 c 5.4,0 10.3,0.6 14.8,1.6 4.4,1.1 8.3,2.8 11.4,5 3.2,2.3 5.6,5.1 7.3,8.6 1.7,3.4 2.5,7.5 2.5,12.2 V 475 c 0,2.6 -0.7,4.7 -2.2,6.4 -1.5,1.6 -3.2,3.1 -5.2,4.3 -6.5,3.9 -15.7,5.9 -27.5,5.9 -5.3,0 -10.1,-0.5 -14.3,-1.5 -4.3,-1 -7.9,-2.5 -11,-4.5 -3.1,-2 -5.4,-4.5 -7,-7.7 -1.6,-3.1 -2.5,-6.7 -2.5,-10.8 0,-6.9 2,-12.2 6.1,-15.9 4.1,-3.7 10.4,-6 19.1,-6.9 l 19.6,-2.1 v -1 c 0,-2.9 -1.3,-5 -3.8,-6.2 -2.5,-1.2 -6.2,-1.9 -11,-1.9 -3.8,0 -7.5,0.4 -11.1,1.2 -3.6,0.8 -6.9,1.8 -9.8,3 -1.3,-0.9 -2.4,-2.3 -3.3,-4.1 -0.9,-1.8 -1.3,-3.8 -1.3,-5.8 0,-2.6 0.6,-4.7 1.9,-6.2 1.2,-1.5 3.2,-2.9 5.8,-4 2.9,-1.1 6.3,-1.9 10.3,-2.4 3.9,-0.5 7.7,-0.8 11.2,-0.8 z m 1.2,58.9 c 1.7,0 3.6,-0.2 5.6,-0.5 2,-0.3 3.6,-0.8 4.6,-1.4 v -12 l -10.8,0.9 c -2.8,0.2 -5.1,0.8 -6.9,1.8 -1.8,1 -2.7,2.5 -2.7,4.5 0,2 0.8,3.6 2.3,4.9 1.5,1.2 4.2,1.8 7.9,1.8 z"
       class="fill"
       inkscape:connector-curvature="0"
       style="fill:#fafafa;fill-opacity:1" /><path
       id="path10"
       d="m 271.9,470.5 c -1.1,-2.5 -2.3,-5.3 -3.5,-8.4 -1.3,-3.1 -2.5,-6.6 -3.9,-10.6 -1.4,-4 -2.8,-8.6 -4.2,-13.7 -1.5,-5.1 -3,-11.1 -4.6,-17.8 1.4,-1.4 3.3,-2.6 5.6,-3.7 2.3,-1 4.9,-1.6 7.7,-1.6 3.5,0 6.4,0.7 8.7,2.2 2.3,1.5 4,4.2 5.1,8.2 l 11.8,41.3 h 0.6 c 1.2,-3.4 2.4,-7.1 3.5,-11.1 1.1,-4 2.3,-8.1 3.4,-12.4 1.1,-4.2 2.1,-8.5 3.1,-12.8 0.9,-4.2 1.8,-8.4 2.5,-12.5 3.6,-1.9 7.5,-2.9 11.9,-2.9 3.5,0 6.4,0.8 8.7,2.3 2.3,1.5 3.5,4.1 3.5,7.8 0,2.7 -0.4,5.8 -1,9.4 -0.7,3.6 -1.6,7.3 -2.8,11.3 -1.2,4 -2.5,8.1 -4,12.4 -1.6,4.3 -3.2,8.4 -4.9,12.5 -1.7,4.1 -3.5,8 -5.3,11.6 -1.8,3.7 -3.6,6.9 -5.3,9.8 -2.8,4.9 -5.4,8.9 -7.8,12 -2.4,3.1 -4.7,5.5 -6.9,7.3 -2.2,1.7 -4.4,2.9 -6.6,3.6 -2.2,0.6 -4.5,1 -6.9,1 -4.2,0 -7.6,-1.3 -10.2,-3.8 -2.6,-2.5 -4.2,-5.8 -4.7,-9.8 3.2,-2.5 6.4,-5.3 9.6,-8.3 3.2,-3.1 6.1,-6.2 8.7,-9.4 -1.7,-0.5 -3.5,-1.7 -5.5,-3.5 -1.9,-1.8 -4,-5.3 -6.3,-10.4 z"
       class="fill"
       inkscape:connector-curvature="0"
       style="fill:#fafafa;fill-opacity:1" /></g></g></svg>