<svg
   x="0px"
   y="0px"
   viewBox="-30 122 550 550"
   style="enable-background:new -30 122 550 550;"
   xml:space="preserve"
   id="svg62"
   ><defs
   id="defs66" />
<style
   type="text/css"
   id="style2">
	.st0{opacity:0.2;enable-background:new    ;}
	.st1{fill:#B4B4B4;}
	.st2{fill:#454ADE;}
	.st3{opacity:0.2;fill:#FFFFFF;enable-background:new    ;}
	.st4{enable-background:new    ;}
	.st5{fill:#FAFAFA;}
	.st6{filter:url(#filter282);enable-background:new    ;}
	.st7{fill:#FFFFFF;}
</style>
<filter
   id="filter282"
   style="color-interpolation-filters:sRGB">
	<feBlend
   in2="BackgroundImage"
   id="feBlend4"
   mode="darken" />
</filter>
<g
   id="svg16"
   inkscape:version="0.92.3 (2405546, 2018-03-11)"
   sodipodi:docname="myDayTitleLogo.svg">
	<title
   id="title81">myDayTitleLogo</title>
	
		<sodipodi:namedview
   inkscape:cy="275"
   inkscape:cx="367.21981"
   gridtolerance="10"
   inkscape:zoom="1.5418182"
   objecttolerance="10"
   guidetolerance="10"
   borderopacity="1"
   pagecolor="#ffffff"
   showgrid="false"
   bordercolor="#666666"
   id="namedview18"
   inkscape:current-layer="layer1"
   inkscape:window-maximized="1"
   inkscape:window-y="-8"
   inkscape:window-x="1912"
   inkscape:window-height="1017"
   inkscape:window-width="1920"
   inkscape:pageshadow="2"
   inkscape:pageopacity="0">
		</sodipodi:namedview>
	<g
   id="layer2"
   inkscape:label="Background"
   inkscape:groupmode="layer">
		<path
   id="rect2"
   class="st0"
   d="M520,645V158.7c0-14.9-12.3-27-27.5-27h-495c-15.2,0-27.5,12.1-27.5,27V645    c0,14.9,12.3,27,27.5,27h495C507.7,672,520,659.9,520,645z" />
		<path
   id="rect4"
   class="st1"
   d="M520,635.3V158.7c0-14.9-12.3-27-27.5-27h-495c-15.2,0-27.5,12.1-27.5,27v476.7    c0,14.9,12.3,27,27.5,27h495C507.7,662.4,520,650.3,520,635.3z"
   style="fill:#646464;fill-opacity:1" />
		<path
   id="path6-6"
   inkscape:connector-curvature="0"
   class="st0"
   d="M-30,257.1v9.6h550v-9.6H-30z" />
		<path
   id="path8-6"
   inkscape:connector-curvature="0"
   class="st2"
   d="M-2.5,122c-15.2,0-27.5,12.1-27.5,27v108.1h550V149    c0-15-12.3-27-27.5-27H-2.5z"
   style="fill:#7a1f3a;fill-opacity:1" />
		<path
   id="path12-9"
   inkscape:connector-curvature="0"
   class="st3"
   d="M-2.5,122c-15.2,0-27.5,12.1-27.5,27v9.6    c0-15,12.3-27,27.5-27h495c15.2,0,27.5,12.1,27.5,27V149c0-15-12.3-27-27.5-27H-2.5z" />
	</g>
	<g
   id="layer4"
   inkscape:label="Icon"
   inkscape:groupmode="layer">
		
	<g
   style="fill:#ffffff;fill-rule:evenodd;stroke:none;stroke-width:1;fill-opacity:1"
   transform="matrix(7.0553238,0,0,7.0515567,34.723381,249.69066)"
   id="g10"
   sketch:type="MSPage"><g
     style="fill:#ffffff;fill-opacity:1"
     id="g8"
     sketch:type="MSArtboardGroup"><path
       inkscape:connector-curvature="0"
       id="path6"
       sketch:type="MSShapeGroup"
       d="m 40.578935,48.269913 c 3.403646,-2.174479 3.592708,-1.985937 1.796354,-0.661979 -1.796354,1.322917 1.418229,-0.567188 -0.283333,0.661979 l -0.75625,0.75625 c 0,0 -1.229167,1.418229 -2.080209,1.5125 -0.851041,0.09427 0.944792,-0.09427 -0.283854,0.473438 -1.229166,0.566666 -10.221354,4.623958 -24.770833,-5.956771 4.066146,6.807292 11.251042,9.832812 17.302083,9.927083 0,0 -1.891666,0 -0.851041,0.189063 1.040104,0.189062 -0.472917,1.606771 -9.360417,-1.701563 0.379167,0.850521 0.473437,1.133854 1.513542,1.701563 0,0 -11.629688,-3.971354 -15.6942712,-15.694271 0.094271,1.417708 0.1885416,3.025521 0.1885416,3.025521 0,0 -5.8625,-10.400521 1.1348959,-23.258334 C 15.430497,6.3865799 30.841435,5.914184 32.921122,6.0084549 c 2.080209,0.094271 13.708334,2.7416666 16.35573,5.4838541 2.647916,2.741146 -1.322917,0.945313 -1.322917,0.945313 0,0 -1.324479,0.75625 0.851042,1.890104 2.173958,1.135416 4.5375,4.916666 2.740625,3.498437 -1.795834,-1.417708 0.851041,1.702084 1.134895,1.891146 0.283334,0.189062 -3.970833,-1.891146 -2.835937,-0.661979 1.134375,1.228646 6.050521,6.618229 4.44375,8.226041 -1.607813,1.606771 -2.175521,-2.836979 -2.458854,-3.120312 -0.283854,-0.284375 0.473958,6.523438 0,7.657292 -0.472917,1.134895 -0.378125,-2.551563 -1.322917,-3.686459 -0.945312,-1.134375 -1.229687,-1.040104 -1.891667,-1.040104 -0.660937,0 -2.457291,-1.795833 -2.646875,-2.836458 -0.189062,-1.040104 -0.75625,-1.323959 -1.607812,-2.174479 -0.850521,-0.851042 -2.173958,-1.701563 -3.78125,-1.607292 -1.607292,0.09479 -0.75625,-1.891146 -3.498438,-1.891146 -2.741666,0 -4.349479,-0.471875 -6.7125,0.567708 -2.36302,1.040105 -6.7125,2.268751 -7.091145,2.363021 -0.378125,0.09479 3.970833,-2.363021 4.633333,-2.741666 0.661458,-0.377605 -10.305729,2.458333 -12.102083,6.807291 -1.796875,4.35 -3.403125,11.818229 2.742187,18.625 6.145313,6.808334 17.111979,7.469271 22.028646,4.066146"
       style="fill:#ffffff;fill-opacity:1" /></g></g></g>
	<g
   id="g50">
		<path
   id="path2"
   inkscape:connector-curvature="0"
   class="st5"
   d="M50.7,152.4c4.1,0,8.1,0.6,12.1,1.7c3.9,1.2,7.4,2.9,10.3,5.2    c3-2,6.4-3.6,10.1-5c3.8-1.3,8.3-1.9,13.6-1.9c3.8,0,7.5,0.5,11.2,1.5c3.6,1,6.9,2.6,9.8,4.7c2.9,2.2,5.1,5,6.8,8.5    c1.7,3.6,2.6,7.9,2.6,13v47.3c-1,0.3-2.6,0.6-4.7,0.9c-2.2,0.3-4.4,0.5-6.7,0.5c-2.2,0-4.2-0.2-5.9-0.5c-1.8-0.3-3.2-0.9-4.4-1.8    c-1.2-0.9-2.1-2.1-2.8-3.7c-0.7-1.5-1-3.6-1-6.1v-35.9c0-3-0.9-5.2-2.6-6.5c-1.7-1.4-4-2-6.9-2c-1.4,0-2.9,0.3-4.5,1    s-2.8,1.3-3.6,2c0.1,0.4,0.2,0.8,0.2,1.1c0,0.4,0,0.7,0,1v50c-1.1,0.3-2.7,0.6-4.9,0.9s-4.3,0.5-6.5,0.5s-4.2-0.2-5.9-0.5    c-1.8-0.3-3.2-0.9-4.4-1.8c-1.2-0.9-2.1-2.1-2.8-3.7c-0.7-1.5-1-3.6-1-6.1v-35.9c0-3-0.9-5.2-2.8-6.5c-1.9-1.4-4.1-2-6.7-2    c-1.8,0-3.4,0.3-4.6,0.8c-1.3,0.6-2.4,1.1-3.3,1.6v52.7c-1,0.3-2.6,0.6-4.7,0.9c-2.2,0.3-4.4,0.5-6.7,0.5c-2.2,0-4.2-0.2-5.9-0.5    c-1.8-0.3-3.2-0.9-4.4-1.8c-1.2-0.9-2.1-2.1-2.8-3.7c-0.7-1.5-1-3.6-1-6.1v-45.3c0-2.7,0.6-4.8,1.7-6.4s2.7-3.1,4.7-4.5    c3.4-2.4,7.6-4.4,12.7-5.9C40,153.1,45.2,152.4,50.7,152.4L50.7,152.4z" />
		<path
   id="path4"
   inkscape:connector-curvature="0"
   class="st5"
   d="M151.8,208.9c-1.1-2.5-2.3-5.3-3.5-8.4    c-1.3-3.1-2.5-6.6-3.9-10.6c-1.4-4-2.8-8.6-4.2-13.7c-1.5-5.1-3-11.1-4.6-17.8c1.4-1.4,3.3-2.6,5.6-3.7c2.3-1,4.9-1.6,7.7-1.6    c3.5,0,6.4,0.7,8.7,2.2c2.3,1.5,4,4.2,5.1,8.2l11.9,41.3h0.6c1.2-3.4,2.4-7.1,3.5-11.1c1.1-4,2.3-8.1,3.4-12.4    c1.1-4.2,2.1-8.5,3.1-12.8c0.9-4.2,1.8-8.4,2.5-12.5c3.6-1.9,7.5-2.9,11.9-2.9c3.5,0,6.4,0.8,8.7,2.3c2.3,1.5,3.4,4.1,3.4,7.8    c0,2.7-0.4,5.8-1,9.4c-0.7,3.6-1.6,7.3-2.8,11.3s-2.5,8.1-4.1,12.4c-1.6,4.3-3.2,8.4-4.9,12.5s-3.4,8-5.3,11.6    c-1.8,3.7-3.6,6.9-5.3,9.8c-2.8,4.9-5.4,8.9-7.8,12c-2.4,3.1-4.7,5.5-6.9,7.3c-2.2,1.7-4.4,2.9-6.6,3.6c-2.2,0.6-4.5,1-6.9,1    c-4.2,0-7.6-1.3-10.2-3.8c-2.6-2.5-4.2-5.8-4.6-9.8c3.2-2.5,6.4-5.3,9.6-8.3c3.2-3.1,6.1-6.2,8.7-9.4c-1.7-0.5-3.5-1.7-5.5-3.5    C156.3,217.5,154.1,214,151.8,208.9z" />
	</g>
</g>
<g
   id="Layer_2">
	<g
   id="g59">
		<path
   class="st7"
   d="M227,226c-0.3-2.5-0.3-4.8-0.2-6.9s0.4-4,0.9-5.8c0.5-1.9,1.1-3.6,1.9-5.3c0.8-1.7,1.7-3.5,2.7-5.5    c1.2-0.4,2.2-1,3.2-1.7c0.9-0.7,1.8-1.4,2.7-2.1c0.8-0.8,1.7-1.4,2.5-2c0.8-0.5,1.6-0.9,2.3-1l1.3-0.8c1.7-1.9,3.8-3.7,6.2-5.4    c2.5-1.7,5-3.2,7.6-4.8c2.2-1.3,4.4-2.6,6.5-3.9c2.1-1.3,4.1-2.8,5.8-4.5c0.8,0.1,1.6-0.1,2.2-0.5c0.4-0.6,0.6-1.2,0.5-1.9    c0.3-0.2,0.5-0.4,0.7-0.6c0.2-0.2,0.4-0.4,0.7-0.6c0.7-0.6,1.6-1.2,2.9-1.8c1.2-0.6,2.1-1.5,2.5-2.6l3.3-3.2l-4.6,0.1    c-2.3,0-4.7,0.1-7.3,0.4c-2.6,0.3-4.8,0.5-6.7,0.6c-1.5,0.2-3.1,0.3-4.6,0.4c-1.6,0.1-3.3,0.2-5.3,0.3c-1.6-1-3-2.3-4.1-3.9    c-1.1-1.6-2-3.3-2.7-5.2c-0.6-1.9-1-3.8-1.1-5.8c-0.1-2,0.2-4,0.8-5.8c0.7-0.2,1.3-0.4,1.8-0.6c0.5-0.2,1.1-0.4,1.6-0.7    c0.9-0.1,1.5-0.1,1.8,0c0.3,0.1,0.7,0.1,1.1,0.1c5.1-0.8,9.2-1.3,12.4-1.3c3.6,0,6.8,0.4,9.6,1.3c3.6,0,7.2-0.1,10.9-0.4    s7.4,0,11.2,0.6c2.7-0.8,5.4-1.1,8.1-0.7c2.7,0.4,5,1.6,7,3.6c0.2,1.7,0.6,3,1.4,3.9s1.8,1.5,3,2c0.8,3,0.8,5.5,0.2,7.7    c-0.6,2.2-1.7,4.2-3.2,5.9c-1.5,1.7-3.3,3.3-5.5,4.6c-2.1,1.4-4.2,2.7-6.2,3.9c-0.6,0.9-1.3,1.7-2.2,2.3c-0.8,0.6-1.7,1.2-2.4,1.9    c-3.3,4.4-7.1,8.1-11.5,11.2c-4.4,3.1-8.8,6.1-13.3,9.1c-3.2,2.2-6.4,4.4-9.6,6.6c-3.2,2.2-6.2,4.6-9.2,7.1l-1.7,1.4l1.4,1.5    c1.2,1.2,2.6,1.8,4.3,1.8c0.9,0,1.8-0.1,2.7-0.4s1.7-0.5,2.5-0.9c0.8-0.3,1.5-0.5,2.1-0.7c0.6-0.2,1.2-0.3,1.6-0.3l1.4,0.3    c1.3-0.7,2.3-1.2,3.1-1.5c0.8-0.3,1.6-0.6,2.5-0.8c0.7-0.2,1.4-0.4,2.2-0.6c0.8-0.3,1.6-0.6,2.3-1c2.2,0,4.3-0.3,6.3-1    s4-1.3,6-2.1c1.2-0.4,2.3-0.8,3.5-1.3c1.1-0.4,2.3-0.8,3.5-1.1c0.4,0.6,0.9,1.1,1.5,1.5c0.5,0.4,1.1,0.7,1.6,1    c0.8,0.4,1.3,0.8,1.7,1.1c0.3,0.3,0.5,0.7,0.6,1.2l0.5,4.2l2.7-2.9c1.3,1.2,1.9,2.4,2,3.6c0.1,1.2,0,2.8-0.4,4.8    c-3.3,3.3-7.4,5.9-12.3,7.7c-4.9,1.9-10,3.6-15.4,5.2c-1.2,0.3-2.3,0.7-3.4,1c-1.1,0.3-2.2,0.7-3.4,1.1l0.1-2.7l-3.3,2.2    c-0.4,0.3-0.8,0.7-1,1c-0.3,0.3-0.5,0.6-0.8,1c-2.6,0.6-4.8,1.1-6.5,1.4c-1.7,0.3-3.4,0.7-4.9,1c-1.7,0.4-3.3,0.8-4.8,1    c-1.5,0.3-3.1,0.4-4.9,0.4c-0.6,0-1.2,0-1.7-0.1c-0.6,0-1.1-0.1-1.7-0.2c-0.5-0.2-1.1-0.3-1.8-0.5l-1.8-3.3l-2.4,1.8    c-0.9-0.8-2-1.6-3.2-2.4c-1-0.8-1.9-1.7-2.8-2.5c-0.8-0.8-1.3-1.7-1.4-2.5l-0.1-1.5l-1.5-0.4c-0.2-0.2-0.3-0.6-0.5-1.3    c-0.2-0.5-0.4-1.1-0.8-1.8C228.2,227,227.7,226.5,227,226z"
   id="path53" />
		<path
   class="st7"
   d="M385.2,165.7c0.1,0.6,0.1,1,0.1,1.3c0,0.3-0.1,0.6-0.1,0.8c0,0.3-0.1,0.5-0.1,0.8c0,0.3,0.1,0.7,0.3,1.3    c-1.8,2.9-3.8,4.8-6.2,5.9c-2.3,1.1-4.8,1.8-7.6,2.3c-2.7,0.5-5.5,1-8.3,1.5c-2.8,0.5-5.6,1.6-8.4,3.3c-1.1-0.4-2.1-0.4-3,0    c-0.9,0.4-2.2,0.6-3.9,0.4c-0.5,0.5-1.1,0.9-1.9,1.1c-0.8,0.2-1.5,0.4-2.3,0.7c0.3,0.8,0.5,1.5,0.4,2.3c0,0.8,0.1,1.5,0.3,2    c3,0.3,6.2,0.2,9.8-0.1c3.6-0.3,7.1-0.5,10.6-0.6c0.1,0.4,0,0.7-0.1,0.8c-0.2,0.1-0.2,0.4-0.1,0.7c0.6,0.4,1.2,1,1.8,1.6    c0.6,0.6,1.2,1.2,1.8,1.8c0.6,0.6,1.2,1.1,1.8,1.5s1.4,0.5,2.2,0.4c0.3,0.7,0.6,1.4,0.7,2.2c0.1,0.8,0,1.6-0.3,2.5    c-1.4,0.9-2.7,1.9-4.1,2.9c-1.4,1-2.8,1.8-4.3,2.6c-1.5,0.8-3,1.4-4.7,1.8c-1.7,0.5-3.5,0.7-5.5,0.6c-0.4,0-0.7,0-1,0    c-0.2,0-0.5-0.1-0.8-0.4c-0.7,0.4-1.6,0.6-2.9,0.4c-1.2-0.2-2.2,0-2.9,0.4c-0.9-0.4-2.1-0.6-3.4-0.6c-1.3,0-2.5-0.1-3.5-0.4    c-1.4,1.8-2.6,3.7-3.7,5.7c-1.1,2-2.1,4.2-2.9,6.5c2.9,0.4,5.3,0.6,7.2,0.5c1.9-0.1,3.7-0.2,5.4-0.4c1.7-0.2,3.4-0.4,5.2-0.6    c1.8-0.2,4-0.3,6.7-0.2c1.7-0.9,3.7-1.5,6-1.8c2.3-0.3,4.5-0.8,6.4-1.5c0.7,0.3,1.3,0.7,1.8,1.3s1,1.2,1.5,1.8    c0.5,0.6,1,1,1.5,1.5c0.5,0.4,1.1,0.6,1.9,0.5c0.3,0.3,0.6,0.7,0.7,1.2c0.1,0.5,0.2,0.9,0.3,1.3c0.1,0.4,0.2,0.8,0.4,1.1    c0.2,0.3,0.6,0.4,1.1,0.3c-1.3,2.8-2.7,4.9-4.4,6.4c-1.7,1.5-3.5,2.6-5.6,3.4c-2.1,0.8-4.5,1.4-7,1.8c-2.6,0.4-5.4,0.9-8.6,1.5    c-0.8,0.2-1.4,0.1-1.9-0.1c-0.5-0.2-1.1-0.3-1.8-0.3c-1.9,0.4-4.3,0.8-7,1.1c-2.7,0.3-5.5,0.5-8.3,0.4c-2.8-0.1-5.5-0.4-8-1.1    s-4.6-1.8-6.2-3.4c-0.7-0.6-1.1-1.3-1.3-2.1c-0.2-0.8-0.8-1.4-1.7-1.8c-0.1-1.1-0.3-2.3-0.5-3.7c-0.3-1.4-0.5-2.8-0.8-4.3    c-0.3-1.5-0.4-2.9-0.6-4.4c-0.1-1.4-0.1-2.7,0.2-3.9c0.3-1.3,0.8-2.4,1.6-3.4c0.8-1,1.1-2.1,0.8-3.3c0.4-0.1,0.7-0.3,0.8-0.7    c0.1-0.4,0.4-0.5,1-0.4c0.5-1.5,1.1-3,1.7-4.3c0.6-1.4,1.2-2.7,1.8-3.9s1.3-2.6,1.9-3.9c0.6-1.3,1.2-2.8,1.8-4.4    c-1.2-1.1-2.1-2.3-2.6-3.6c-0.6-1.3-1-2.6-1.2-3.9c-0.3-1.3-0.5-2.7-0.6-4.1c-0.2-1.4-0.5-2.8-0.9-4.3c0.8-1.3,1.9-2.3,3.1-3.1    c1.2-0.8,2.6-1.5,4-2c1.4-0.5,3-0.9,4.7-1.3c1.7-0.3,3.5-0.7,5.3-1.1c3.4-1.1,6.4-1.9,9.1-2.5c2.7-0.6,5.3-1.1,7.9-1.5    c2.6-0.4,5.3-0.7,8.1-1.1c2.8-0.3,6-0.8,9.5-1.5c0.8,0.8,1.5,1.1,2.2,1.1c0.3-0.8,0.7-1,1.2-0.7c0.5,0.3,0.7,0.1,0.6-0.7    c0.8,1.4,1.9,2.6,3.2,3.6C382.1,164.2,383.6,165.1,385.2,165.7z"
   id="path55" />
		<path
   class="st7"
   d="M408.1,214.1c-0.8,0.2-1.3,0.6-1.7,1.3c-0.3,0.7-0.7,1.5-1,2.2c-0.3,0.8-0.6,1.5-0.9,2.1    c-0.3,0.6-0.7,1-1.3,1c-0.1,0.7-0.3,1.3-0.7,1.8s-0.7,1-1.1,1.6c-0.3,0.6-0.6,1.1-0.8,1.8c-0.2,0.6-0.1,1.4,0.3,2.2    c-0.7,0.5-1.1,1.2-1.3,2.2c-0.2,0.9-0.4,1.8-0.6,2.7c-0.2,0.8-0.6,1.6-1.1,2.2c-0.5,0.6-1.4,0.8-2.8,0.8c-0.3,0.3-0.3,0.6-0.1,0.6    c0.2,0.1,0.3,0.4,0.4,0.9c-0.9-0.2-1.6-0.1-2.1,0.2c-0.5,0.3-1,0.5-1.7,0.6c-1.6-0.5-2.9-1.4-4-2.7c-1.1-1.3-2-2.7-2.8-4.3    c-0.8-1.6-1.5-3.2-2.2-4.8c-0.6-1.6-1.2-3-1.8-4.2c0.3-0.9,0.3-1.8,0.1-2.7c-0.2-0.9-0.5-1.6-0.9-2.2c4.1-8.8,8.7-18.2,13.6-28.2    c4.9-10,9.6-19.8,14-29.6c1.9,0.8,3.9,1.6,5.8,2.6c1.9,1,3.6,2.1,5.2,3.4c1.6,1.3,2.9,2.7,4,4.4c1.1,1.7,1.8,3.5,2.2,5.5    c-0.2,0.5-0.4,0.7-0.6,0.6c-0.2-0.1-0.4-0.1-0.6,0.2c0.3,0.4,0.5,0.7,0.6,0.9c0,0.2,0,0.3,0,0.5c0,0.2-0.1,0.4-0.1,0.7    c0,0.3,0.1,0.7,0.4,1.2c-0.3-0.1-0.6,0-0.7,0.1c-0.1,0.2-0.4,0.2-0.8,0c0.3,0.9,0.4,1.7,0.3,2.3c-0.1,0.6-0.3,1.1-0.6,1.6    c-0.3,0.5-0.5,1-0.6,1.5c-0.2,0.6-0.1,1.2,0.1,2.1c-0.3,0-0.4,0.1-0.6,0.2s-0.2,0.3-0.3,0.4c-0.1,0.1-0.2,0.3-0.3,0.4    s-0.3,0.1-0.6,0.1c0.3,1.9,0.3,3.7,0.3,5.6c-0.1,1.9-0.1,3.7-0.2,5.6c0,1.9,0,3.9,0.1,6c0.1,2.1,0.4,4.2,0.9,6.4    c3-1.8,5.5-4.1,7.3-6.9c1.8-2.8,3.3-5.9,4.4-9.4c1.1-3.5,2-7.2,2.6-11.2c0.6-4,1.2-8,1.9-12.2c0.8-0.8,1.4-1.7,1.8-2.8    c0.4-1.1,0.8-2.3,1.1-3.5c0.3-1.2,0.7-2.5,1-3.7c0.3-1.2,0.8-2.3,1.3-3.4c1.3,0.2,2.3,0.6,3.2,1.2s1.7,1.3,2.5,2    c0.8,0.7,1.6,1.4,2.4,2c0.8,0.6,1.9,1,3.2,1.2c1,1.4,1.9,2.8,2.8,4.2c0.8,1.4,1.4,2.8,1.7,4.3c-0.4,0.7-0.7,1.4-1,2.3    c-0.2,0.8-0.4,1.7-0.7,2.5c-0.3,0.8-0.6,1.6-1,2.3c-0.4,0.7-1,1.3-1.8,1.8c-0.3,2.2-0.6,4.2-1,6c-0.4,1.8-0.8,3.6-1.1,5.4    s-0.7,3.6-1,5.5s-0.3,4-0.3,6.3c-0.7,1.9-1.4,4-2.2,6.2c-0.8,2.2-1.4,4.2-1.8,6c-1.4,1.1-2.4,2.4-3.2,3.9s-1.6,3-2.4,4.6    c-0.3,0.3-0.6,0.4-0.6,0.3c-0.1-0.2-0.4-0.3-0.9-0.4c0.1,0.3,0.1,0.6,0,0.8c-0.1,0.2-0.2,0.3-0.3,0.4s-0.2,0.3-0.3,0.6    c0,0.3,0,0.6,0.2,1c-1.2,0.5-2.2,1.2-3.2,2.2c-0.9,0.9-1.9,1.8-3,2.5c-1.1,0.8-2.3,1.3-3.8,1.5c-1.5,0.3-3.4,0-5.8-0.9    c-3.5-2.5-6.5-5.5-9.2-8.8S409.8,218.7,408.1,214.1z"
   id="path57" />
	</g>
</g>
</svg>