<svg
   id="Layer_1"
   data-name="Layer 1"
   viewBox="0 0 115 115"
   version="1.1"
   width="115"
   height="115"
   >
  <g
     id="g818"
     class="gitFillc">
    <path
       class="gitFillc"
       inkscape:connector-curvature="0"
       id="path4"
       d="m 54.888395,1e-5 C 49.806301,0.28722 45.459027,1.02389 41.022536,2.36581 28.673356,6.09787 18.123105,13.63988 10.688942,24.04747 A 57.992316,58.010843 0 0 0 2.1371396,41.86401 c -1.1354822,4.05658 -1.7389098,7.58906 -2.08117655,12.22331 -0.0746174,1.00441 -0.0746174,5.84149 0,6.89945 a 59.998875,60.018043 0 0 0 1.33013625,9.262 57.684114,57.702542 0 0 0 15.4376897,27.95476 56.491858,56.509905 0 0 0 12.190212,9.29122 57.800907,57.819372 0 0 0 23.222232,7.30186 c 1.614007,0.1509 2.215812,0.17524 4.61979,0.19633 2.528881,0.0211 3.578391,0 5.190776,-0.13305 a 57.547856,57.566241 0 0 0 18.832782,-4.80138 c 0.944072,-0.41864 3.236124,-1.55124 4.201283,-2.0786 a 57.958252,57.976768 0 0 0 9.604557,-6.56518 62.047609,62.067432 0 0 0 6.736649,-6.73881 57.831727,57.850202 0 0 0 12.27943,-24.96911 c 1.00409,-4.64236 1.39178,-8.86933 1.27986,-13.8492 -0.17195,-7.33918 -1.76811,-14.44145 -4.81932,-21.48531 A 58.264833,58.283446 0 0 0 100.97762,19.82375 60.472534,60.491853 0 0 0 94.685421,13.59283 57.773331,57.791787 0 0 0 62.685913,0.19148 C 60.997289,0.02922 60.525253,0.01624 57.85687,0.00325 56.364521,2.5e-4 55.02952,2.5e-4 54.888395,2.5e-4 Z m 6.396008,7.35216 c 6.780451,0.53385 12.8861,2.20516 18.790608,5.15836 A 49.949859,49.965816 0 0 1 106.26085,45.2618 c 0.82403,3.31667 1.27985,6.62036 1.45018,10.54714 0.0925,2.12403 -0.0746,5.23137 -0.42663,7.9071 a 49.961214,49.977175 0 0 1 -11.101764,25.42345 52.374925,52.391656 0 0 1 -6.07483,6.14655 50.05043,50.066419 0 0 1 -26.043094,11.4915 44.596872,44.611119 0 0 1 -6.311658,0.39268 41.594332,41.60762 0 0 1 -4.598703,-0.20121 A 50.013121,50.029099 0 0 1 31.270367,99.57628 48.890616,48.906235 0 0 1 22.408739,92.50159 49.94337,49.959326 0 0 1 43.895306,9.20197 50.919885,50.936152 0 0 1 55.160911,7.30187 c 1.036533,-0.0568 5.150222,-0.0195 6.123492,0.0568 z" />
    <path
      class="gitFillc"
       inkscape:connector-curvature="0"
       id="path6"
       d="m 50.520033,22.68445 a 3.9417451,3.9430044 0 0 1 -0.418506,0.12495 c -0.548276,0.14603 -1.521547,0.43973 -2.446154,0.74479 a 45.92863,45.943303 0 0 0 -11.495945,5.63703 c -4.829043,3.24527 -9.635377,7.62639 -15.02405,13.67395 q -5.505467,6.18549 -8.00515,12.62086 c -1.526412,3.92678 -2.210945,7.98337 -1.902743,11.25785 0.02433,0.2515 0.0584,0.52735 0.07462,0.60686 l 0.03407,0.14604 0.04542,-0.11359 c 0.162211,-0.41052 0.994357,-2.00233 1.526412,-2.94021 A 60.816423,60.835852 0 0 1 21.40628,52.96446 c 2.478595,-2.66275 4.454334,-4.27078 6.371676,-5.20704 1.208478,-0.58577 2.319628,-0.8454 3.189082,-0.73992 0.81917,0.1006 1.325271,0.33913 1.842726,0.86162 a 2.7770648,2.777952 0 0 1 0.739686,1.23807 l 0.09571,0.31317 0.01298,13.73723 c 0.0081,8.96993 0,13.88327 -0.0292,14.15425 a 3.2588337,3.2598748 0 0 1 -0.334155,1.25429 c -0.514213,1.0823 -1.722689,1.59668 -3.406448,1.45064 a 10.715707,10.71913 0 0 1 -1.902743,-0.37645 c -0.162212,-0.0503 -0.251428,-0.0633 -0.233584,-0.0341 0.01784,0.0292 0.121658,0.17525 0.233584,0.33913 1.171168,1.63075 3.022005,3.47569 4.937726,4.90036 5.065872,3.78886 12.652514,6.58628 20.763101,7.66533 l 1.002469,0.13144 0.23034,-0.24664 c 0.124903,-0.13306 0.715354,-0.76102 1.312293,-1.39222 1.696735,-1.79788 1.985471,-2.10943 4.447846,-4.72187 1.274984,-1.3549 2.340716,-2.46641 2.361803,-2.46641 0.02109,0 0.522321,0.40079 1.107906,0.89894 l 4.326187,3.65418 2.361802,2.00233 c 0.05515,0.0422 0.171945,-0.0162 0.648848,-0.30993 a 46.095708,46.110434 0 0 0 6.605262,-4.94741 c 0.848366,-0.7529 3.244234,-3.15278 4.037449,-4.05659 a 62.245508,62.265393 0 0 0 6.253263,-8.3014 c 1.135481,-1.7849 2.441286,-4.13123 3.043092,-5.43583 l 0.193031,-0.41864 -1.161436,1.15369 c -2.207701,2.18245 -3.833063,3.5552 -5.63848,4.72998 -2.997672,1.96502 -5.492489,2.59622 -7.379011,1.86928 a 3.3837368,3.3848177 0 0 1 -1.135482,-0.73668 l -0.186544,-0.20607 -0.0292,-0.47706 c -0.08435,-1.42954 -0.162212,-4.53364 -0.262783,-10.18203 -0.08759,-5.04315 -0.100572,-17.30866 -0.02109,-19.40348 0.06651,-1.81411 0.124903,-2.78931 0.196276,-3.3118 0.0584,-0.42188 0.06651,-0.43973 0.410395,-1.02388 0.90352,-1.53826 2.035758,-3.19497 3.74547,-5.46504 1.526412,-2.03641 4.021228,-5.16485 5.664433,-7.11363 0.1833,-0.21744 0.363354,-0.43487 0.397419,-0.47706 0.06326,-0.0746 0.0584,-0.0795 -0.121659,-0.0503 -0.914874,0.13793 -3.273433,0.75615 -4.829044,1.26728 C 75.009149,29.52871 68.8889,33.28836 64.666528,37.6711 l -0.627759,0.64905 -0.201143,-0.14279 c -1.200367,-0.85351 -3.591367,-1.38898 -6.024543,-1.35004 l -0.794838,0.013 0.27576,0.172 c 0.856478,0.54845 1.768108,1.49282 2.491572,2.59621 a 10.470768,10.474112 0 0 1 1.505325,3.5341 l 0.116792,0.51438 0.0081,14.74002 0.01298,14.74002 -0.535299,0.42189 c -2.425066,1.92769 -4.837154,3.22417 -6.759363,3.63794 -1.759997,0.37646 -3.406446,-0.0162 -4.723605,-1.13584 A 6.3797874,6.3818256 0 0 1 47.992776,74.21286 L 47.841919,73.91592 V 56.24217 c 0,-9.71797 -0.01298,-17.66401 -0.0292,-17.65428 -0.856479,0.43487 -1.17117,0.53547 -1.7308,0.53547 a 1.9676283,1.9682569 0 0 1 -1.5475,-0.66528 c -0.476902,-0.48679 -0.760773,-1.04497 -1.00409,-2.0072 -0.188166,-0.73181 -0.251429,-1.2981 -0.275761,-2.47127 -0.02433,-1.2332 0.02433,-1.74433 0.254673,-2.64327 a 10.899006,10.902488 0 0 1 1.646449,-3.52437 c 1.182524,-1.72648 3.01065,-3.49191 4.962057,-4.7884 0.254673,-0.16226 0.476902,-0.32452 0.501234,-0.34237 0.05677,-0.0471 -0.0146,-0.0438 -0.09895,0.003 z" />
    <path
       class="gitFillc"
       inkscape:connector-curvature="0"
       id="path8"
       d="m 95.207743,29.80945 a 3.8395517,3.8407783 0 0 1 -1.171168,0.88596 c -0.861345,0.43486 -1.725933,0.5809 -3.532972,0.60199 -0.648847,0.008 -0.760773,0.0162 -0.824036,0.0795 -0.03731,0.0373 -1.69349,2.39663 -3.678962,5.23949 l -3.6157,5.1681 -0.193032,1.50093 c -0.108682,0.8243 -0.196276,1.51392 -0.196276,1.53015 0,0.0162 1.768109,0.0341 3.928768,0.0341 H 89.858 l -0.02433,0.13305 c -0.03406,0.20932 -0.522322,4.13934 -0.522322,4.22697 0,0.0876 0.124904,0.0714 2.223923,0.0633 l 2.22879,-0.013 0.04542,-0.35536 c 0.0292,-0.19634 0.05515,-0.41864 0.05515,-0.48679 V 48.28478 H 93.4737 c -0.288737,0 -0.397419,-0.013 -0.397419,-0.0552 0,-0.0422 0.06651,-0.54845 0.14599,-1.15856 0.07948,-0.61011 0.175189,-1.35977 0.217364,-1.66482 l 0.06651,-0.5517 h 2.149305 l 0.07137,-0.61822 c 0.217363,-1.84818 0.280626,-2.33335 0.296847,-2.38365 0.01622,-0.0503 -0.212497,-0.0503 -1.044643,-0.0503 a 8.4674524,8.4701575 0 0 1 -1.078708,-0.0341 c -0.01298,-0.0162 0.07137,-0.70747 0.183298,-1.53501 0.111927,-0.82755 0.272517,-1.98611 0.350378,-2.57188 0.07786,-0.58577 0.36011,-2.65463 0.62776,-4.60017 0.267649,-1.94554 0.476902,-3.54222 0.472035,-3.55844 a 1.8313705,1.8319555 0 0 0 -0.326045,0.30668 z m -4.389449,6.76152 c -0.116793,0.97358 -0.26765,2.25871 -0.334157,2.84286 -0.06651,0.58414 -0.162211,1.35976 -0.201142,1.71512 l -0.07137,0.64906 -1.998449,0.013 c -1.68538,0.008 -1.998448,0 -1.985471,-0.0503 0.01298,-0.0503 4.769025,-6.97734 4.786868,-6.95462 0.01784,0.0227 -0.08273,0.81132 -0.196276,1.7849 z" />
  </g>
</svg>
